<svg width="360" height="40" viewBox="0 0 360 40" fill="none" xmlns="http://www.w3.org/2000/svg">
<path d="M40 20C40 31.0457 31.0457 40 20 40C8.9543 40 0 31.0457 0 20C0 8.9543 8.9543 0 20 0C31.0457 0 40 8.9543 40 20Z" fill="black"/>
<path d="M153.693 26.6413C152.683 26.6413 151.814 26.4368 151.085 26.0277C150.36 25.6143 149.802 25.0305 149.41 24.2763C149.018 23.5177 148.822 22.6207 148.822 21.5852C148.822 20.5753 149.018 19.6889 149.41 18.9261C149.802 18.1633 150.354 17.5689 151.066 17.1427C151.782 16.7166 152.621 16.5035 153.584 16.5035C154.232 16.5035 154.835 16.6079 155.393 16.8168C155.956 17.0213 156.446 17.3302 156.863 17.7436C157.285 18.1569 157.613 18.6768 157.848 19.3033C158.082 19.9254 158.199 20.6541 158.199 21.4893V22.2372H149.909V20.5497H155.636C155.636 20.1577 155.551 19.8104 155.38 19.5078C155.21 19.2052 154.973 18.9687 154.671 18.7983C154.373 18.6236 154.025 18.5362 153.629 18.5362C153.216 18.5362 152.849 18.6321 152.529 18.8239C152.214 19.0114 151.967 19.2649 151.788 19.5845C151.609 19.8998 151.517 20.2514 151.513 20.6392V22.2436C151.513 22.7294 151.603 23.1491 151.782 23.5028C151.965 23.8565 152.223 24.1293 152.555 24.321C152.887 24.5128 153.282 24.6087 153.738 24.6087C154.04 24.6087 154.317 24.566 154.569 24.4808C154.82 24.3956 155.035 24.2677 155.214 24.0973C155.393 23.9268 155.529 23.718 155.623 23.4709L158.142 23.6371C158.014 24.2422 157.752 24.7706 157.355 25.2223C156.963 25.6697 156.456 26.0192 155.834 26.2706C155.216 26.5177 154.502 26.6413 153.693 26.6413Z" fill="black"/>
<path d="M140.744 20.7734V26.4496H138.021V16.6314H140.616V18.3636H140.731C140.949 17.7926 141.313 17.3409 141.824 17.0085C142.336 16.6719 142.956 16.5035 143.684 16.5035C144.366 16.5035 144.961 16.6527 145.468 16.951C145.975 17.2493 146.369 17.6754 146.65 18.2294C146.932 18.7791 147.072 19.4354 147.072 20.1981V26.4496H144.349V20.6839C144.354 20.0831 144.2 19.6143 143.889 19.2777C143.578 18.9368 143.15 18.7663 142.604 18.7663C142.238 18.7663 141.914 18.8452 141.633 19.0028C141.356 19.1605 141.138 19.3906 140.981 19.6932C140.827 19.9915 140.748 20.3516 140.744 20.7734Z" fill="black"/>
<path d="M131.418 26.6413C130.425 26.6413 129.567 26.4304 128.842 26.0085C128.122 25.5824 127.566 24.99 127.174 24.2315C126.782 23.4687 126.586 22.5845 126.586 21.5788C126.586 20.5646 126.782 19.6783 127.174 18.9197C127.566 18.1569 128.122 17.5646 128.842 17.1427C129.567 16.7166 130.425 16.5035 131.418 16.5035C132.411 16.5035 133.268 16.7166 133.988 17.1427C134.712 17.5646 135.27 18.1569 135.662 18.9197C136.055 19.6783 136.251 20.5646 136.251 21.5788C136.251 22.5845 136.055 23.4687 135.662 24.2315C135.27 24.99 134.712 25.5824 133.988 26.0085C133.268 26.4304 132.411 26.6413 131.418 26.6413ZM131.431 24.5319C131.883 24.5319 132.26 24.4041 132.562 24.1484C132.865 23.8885 133.093 23.5348 133.246 23.0873C133.404 22.6399 133.483 22.1307 133.483 21.5596C133.483 20.9886 133.404 20.4794 133.246 20.0319C133.093 19.5845 132.865 19.2308 132.562 18.9709C132.26 18.7109 131.883 18.581 131.431 18.581C130.975 18.581 130.591 18.7109 130.28 18.9709C129.974 19.2308 129.741 19.5845 129.584 20.0319C129.43 20.4794 129.354 20.9886 129.354 21.5596C129.354 22.1307 129.43 22.6399 129.584 23.0873C129.741 23.5348 129.974 23.8885 130.28 24.1484C130.591 24.4041 130.975 24.5319 131.431 24.5319Z" fill="black"/>
<path d="M116.533 26.6413C115.523 26.6413 114.653 26.4368 113.925 26.0277C113.2 25.6143 112.642 25.0305 112.25 24.2763C111.858 23.5177 111.662 22.6207 111.662 21.5852C111.662 20.5753 111.858 19.6889 112.25 18.9261C112.642 18.1633 113.194 17.5689 113.906 17.1427C114.621 16.7166 115.461 16.5035 116.424 16.5035C117.072 16.5035 117.675 16.6079 118.233 16.8168C118.795 17.0213 119.286 17.3302 119.703 17.7436C120.125 18.1569 120.453 18.6768 120.687 19.3033C120.922 19.9254 121.039 20.6541 121.039 21.4893V22.2372H112.749V20.5497H118.476C118.476 20.1577 118.391 19.8104 118.22 19.5078C118.05 19.2052 117.813 18.9687 117.511 18.7983C117.212 18.6236 116.865 18.5362 116.469 18.5362C116.055 18.5362 115.689 18.6321 115.369 18.8239C115.054 19.0114 114.807 19.2649 114.628 19.5845C114.449 19.8998 114.357 20.2514 114.353 20.6392V22.2436C114.353 22.7294 114.442 23.1491 114.621 23.5028C114.805 23.8565 115.062 24.1293 115.395 24.321C115.727 24.5128 116.121 24.6087 116.577 24.6087C116.88 24.6087 117.157 24.566 117.408 24.4808C117.66 24.3956 117.875 24.2677 118.054 24.0973C118.233 23.9268 118.369 23.718 118.463 23.4709L120.982 23.6371C120.854 24.2422 120.592 24.7706 120.195 25.2223C119.803 25.6697 119.296 26.0192 118.674 26.2706C118.056 26.5177 117.342 26.6413 116.533 26.6413Z" fill="black"/>
<path d="M105.15 26.4496V16.6314H107.79V18.3444H107.892C108.071 17.7351 108.372 17.2748 108.793 16.9638C109.215 16.6484 109.701 16.4908 110.251 16.4908C110.387 16.4908 110.534 16.4993 110.692 16.5163C110.85 16.5334 110.988 16.5568 111.107 16.5866V19.0028C110.98 18.9645 110.803 18.9304 110.577 18.9006C110.351 18.8707 110.144 18.8558 109.957 18.8558C109.556 18.8558 109.198 18.9432 108.883 19.1179C108.572 19.2883 108.325 19.527 108.142 19.8338C107.963 20.1406 107.873 20.4943 107.873 20.8949V26.4496H105.15Z" fill="black"/>
<path d="M100.249 22.2692V16.6314H102.972V26.4496H100.358V24.6662H100.255C100.034 25.2415 99.6651 25.7038 99.1495 26.0533C98.6381 26.4027 98.0138 26.5774 97.2766 26.5774C96.6204 26.5774 96.043 26.4283 95.5444 26.13C95.0458 25.8317 94.6559 25.4077 94.3746 24.8579C94.0976 24.3082 93.957 23.6498 93.9528 22.8828V16.6314H96.6758V22.397C96.68 22.9765 96.8356 23.4346 97.1424 23.7713C97.4492 24.1079 97.8604 24.2763 98.3761 24.2763C98.7042 24.2763 99.011 24.2017 99.2965 24.0525C99.582 23.8991 99.8121 23.6733 99.9869 23.375C100.166 23.0767 100.253 22.7081 100.249 22.2692Z" fill="black"/>
<path d="M92.179 16.6314V18.6768H86.2663V16.6314H92.179ZM87.6087 14.2791H90.3317V23.4325C90.3317 23.6839 90.37 23.88 90.4467 24.0206C90.5234 24.157 90.63 24.2528 90.7663 24.3082C90.907 24.3636 91.0689 24.3913 91.2521 24.3913C91.38 24.3913 91.5078 24.3807 91.6356 24.3594C91.7635 24.3338 91.8615 24.3146 91.9297 24.3018L92.3579 26.3281C92.2216 26.3707 92.0298 26.4197 91.7827 26.4751C91.5355 26.5348 91.2351 26.571 90.8814 26.5838C90.2251 26.6094 89.6498 26.522 89.1555 26.3217C88.6655 26.1214 88.2841 25.8104 88.0114 25.3885C87.7386 24.9666 87.6044 24.4339 87.6087 23.7905V14.2791Z" fill="black"/>
<path d="M79.315 26.6349C78.6886 26.6349 78.1303 26.5263 77.6403 26.3089C77.1502 26.0873 76.7624 25.7614 76.4769 25.331C76.1957 24.8963 76.0551 24.3551 76.0551 23.7074C76.0551 23.1619 76.1552 22.7038 76.3555 22.3331C76.5558 21.9623 76.8285 21.6641 77.1737 21.4382C77.5188 21.2123 77.9109 21.0419 78.3498 20.9268C78.793 20.8118 79.2575 20.7308 79.7433 20.6839C80.3143 20.6243 80.7745 20.5689 81.1239 20.5177C81.4734 20.4623 81.7269 20.3814 81.8846 20.2748C82.0423 20.1683 82.1211 20.0106 82.1211 19.8018V19.7635C82.1211 19.3587 81.9933 19.0454 81.7376 18.8239C81.4862 18.6023 81.1282 18.4915 80.6637 18.4915C80.1737 18.4915 79.7837 18.6001 79.494 18.8175C79.2042 19.0305 79.0124 19.299 78.9187 19.6229L76.4002 19.4183C76.5281 18.8217 76.7795 18.3061 77.1545 17.8714C77.5295 17.4325 78.0132 17.0959 78.6055 16.8615C79.2021 16.6229 79.8924 16.5035 80.6765 16.5035C81.222 16.5035 81.744 16.5675 82.2426 16.6953C82.7454 16.8231 83.1907 17.0213 83.5785 17.2898C83.9705 17.5582 84.2795 17.9034 84.5053 18.3253C84.7312 18.7429 84.8441 19.2436 84.8441 19.8274V26.4496H82.2617V25.0881H82.185C82.0274 25.3949 81.8164 25.6655 81.5522 25.8998C81.288 26.13 80.9705 26.3111 80.5998 26.4432C80.2291 26.571 79.8008 26.6349 79.315 26.6349ZM80.0948 24.7557C80.4954 24.7557 80.8491 24.6768 81.1559 24.5192C81.4627 24.3572 81.7035 24.1399 81.8782 23.8672C82.0529 23.5944 82.1403 23.2855 82.1403 22.9403V21.8984C82.0551 21.9538 81.9379 22.005 81.7887 22.0518C81.6438 22.0944 81.4798 22.1349 81.2965 22.1733C81.1133 22.2074 80.9301 22.2393 80.7468 22.2692C80.5636 22.2947 80.3974 22.3182 80.2482 22.3395C79.9286 22.3864 79.6495 22.4609 79.4109 22.5632C79.1722 22.6655 78.9869 22.804 78.8548 22.9787C78.7227 23.1491 78.6566 23.3622 78.6566 23.6179C78.6566 23.9886 78.7908 24.272 79.0593 24.468C79.332 24.6598 79.6772 24.7557 80.0948 24.7557Z" fill="black"/>
<path d="M70.2319 26.6413C69.2219 26.6413 68.3526 26.4368 67.6239 26.0277C66.8995 25.6143 66.3413 25.0305 65.9492 24.2763C65.5572 23.5177 65.3611 22.6207 65.3611 21.5852C65.3611 20.5753 65.5572 19.6889 65.9492 18.9261C66.3413 18.1633 66.8931 17.5689 67.6048 17.1427C68.3207 16.7166 69.1602 16.5035 70.1232 16.5035C70.7709 16.5035 71.3739 16.6079 71.9322 16.8168C72.4947 17.0213 72.9847 17.3302 73.4023 17.7436C73.8242 18.1569 74.1523 18.6768 74.3867 19.3033C74.6211 19.9254 74.7383 20.6541 74.7383 21.4893V22.2372H66.4478V20.5497H72.1751C72.1751 20.1577 72.0898 19.8104 71.9194 19.5078C71.7489 19.2052 71.5124 18.9687 71.2099 18.7983C70.9116 18.6236 70.5643 18.5362 70.168 18.5362C69.7546 18.5362 69.3881 18.6321 69.0685 18.8239C68.7532 19.0114 68.506 19.2649 68.3271 19.5845C68.1481 19.8998 68.0565 20.2514 68.0522 20.6392V22.2436C68.0522 22.7294 68.1417 23.1491 68.3207 23.5028C68.5039 23.8565 68.7617 24.1293 69.0941 24.321C69.4265 24.5128 69.8207 24.6087 70.2766 24.6087C70.5792 24.6087 70.8562 24.566 71.1076 24.4808C71.359 24.3956 71.5742 24.2677 71.7532 24.0973C71.9322 23.9268 72.0685 23.718 72.1623 23.4709L74.6807 23.6371C74.5529 24.2422 74.2908 24.7706 73.8945 25.2223C73.5025 25.6697 72.9954 26.0192 72.3732 26.2706C71.7553 26.5177 71.0415 26.6413 70.2319 26.6413Z" fill="black"/>
<path d="M56 26.4496V13.3587H64.6676V15.6406H58.7678V18.7599H64.0923V21.0419H58.7678V26.4496H56Z" fill="black"/>
</svg>
